{"title":"The Orphan Killer 2011 Xvid BigPerm LKRG","uid":6640305,"size":602736641,"categoryP":"video","categoryS":"movies","magnet":"?xt=urn:btih:cd6435e6fde7017b63ca8964e37221c3e562a302&amp;dn=The+Orphan+Killer+2011+Xvid+BigPerm+LKRG&amp;tr=udp%3A%2F%2Ftracker.openbittorrent.com%3A80&amp;tr=udp%3A%2F%2Fopen.demonii.com%3A1337&amp;tr=udp%3A%2F%2Ftracker.coppersurfer.tk%3A6969&amp;tr=udp%3A%2F%2Fexodus.desync.com%3A6969","seeders":0,"leechers":1,"uploader":".BONE.","files":2,"time":1314718818,"description":"PLOT\n\nThe Orphan Killer is a tour de force murder flick that defies classification. It goes far beyond\ncurrent trends in gore and breaks open a new suffering genre of horror..\n &lt;a href=&quot;\nhttp://www.imdb.com/title/tt1621446/&quot; rel=&quot;nofollow&quot; target=&quot;_NEW&quot;&gt;\nhttp://www.imdb.com/title/tt1621446/&lt;/a&gt;\n\n\nEncoded By .......: BigPerm1828\nRuntime ..........: 1h 22mn\nFile Size ........: 575 MiB\nResolution .......: 640 x 272\nIMDb URL .........: http://www.imdb.com/title/tt1179071/\nGenre ............: Horror\nLanguage .........: English\nSubtitles ........: None\nVideo\nID : 0\nFormat : MPEG-4 Visual\nFormat profile : Simple@L3\nFormat settings, BVOP : No\nFormat settings, QPel : No\nFormat settings, GMC : No warppoints\nFormat settings, Matrix : Default (H.263)\nCodec ID : XVID\nCodec ID/Hint : XviD\nDuration : 1h 22mn\nBit rate : 707 Kbps\nWidth : 640 pixels\nHeight : 272 pixels\nDisplay aspect ratio : 16:9\nFrame rate : 29.970 fps\nColor space : YUV\nChroma subsampling : 4:2:0\nBit depth : 8 bits\nScan type : Progressive\nCompression mode : Lossy\nBits/(Pixel*Frame) : 0.136\nStream size : 417 MiB (73%)\nWriting library : XviD 64\n\nAudio\nID : 1\nFormat : AC-3\nFormat/Info : Audio Coding 3\nMode extension : CM (complete main)\nCodec ID : 2000\nDuration : 1h 22mn\nBit rate mode : Constant\nBit rate : 256 Kbps\nChannel(s) : 6 channels\nChannel positions : Front: L C R, Side: L R, LFE\nSampling rate : 48.0 KHz\nBit depth : 16 bits\nCompression mode : Lossy\nStream size : 151 MiB (26%)\nAlignment : Split accross interleaves\nInterleave, duration : 33 ms (1.00 video frame)\nInterleave, preload duration : 500 ms\n","torrent":{"xt":"urn:btih:cd6435e6fde7017b63ca8964e37221c3e562a302","amp;dn":"The+Orphan+Killer+2011+Xvid+BigPerm+LKRG","amp;tr":["udp%3A%2F%2Ftracker.openbittorrent.com%3A80","udp%3A%2F%2Fopen.demonii.com%3A1337","udp%3A%2F%2Ftracker.coppersurfer.tk%3A6969","udp%3A%2F%2Fexodus.desync.com%3A6969"],"infoHash":"cd6435e6fde7017b63ca8964e37221c3e562a302","infoHashBuffer":{"type":"Buffer","data":[205,100,53,230,253,231,1,123,99,202,137,100,227,114,33,195,229,98,163,2]},"announce":[],"urlList":[]}}